# xmcd CD database file
#
# Track frame offsets:
#	150
#	13256
#	32749
#	43227
#	55101
#	63353
#	72224
#	84869
#	92890
#	110842
#	119459
#	133088
#	146256
#	159417
#	172444
#	182915
#
# Disc length: 2620 seconds
#
# Revision: 0
# Processed by: cddbd v1.5.1PL0 Copyright (c) Steve Scherf et al.
# Submitted via: CDex 1.51
#
DISCID=e90a3a10
DTITLE=Small Faces  - Small Faces（＋４）
DYEAR=1900
DGENRE=Rock
TTITLE0=Shake
TTITLE1=Come On Children
TTITLE2=You Better Believe It
TTITLE3=It's Too Late
TTITLE4=One Night Stand
TTITLE5=What'cha Gonna Do About It
TTITLE6=Sorry She's Mine
TTITLE7=Own Up Time
TTITLE8=You Need Loving
TTITLE9=Don't Stop What You Are Doing
TTITLE10=E Too D
TTITLE11=Sha La La La Lee
TTITLE12=What's A-Matter Baby
TTITLE13=I've Got Mine
TTITLE14=Grow Your Own
TTITLE15=Almost Grown
EXTD=
EXTT0=
EXTT1=
EXTT2=
EXTT3=
EXTT4=
EXTT5=
EXTT6=
EXTT7=
EXTT8=
EXTT9=
EXTT10=
EXTT11=
EXTT12=
EXTT13=
EXTT14=
EXTT15=
PLAYORDER=
